<svg width="46" height="46" viewBox="0 0 46 46" fill="none" xmlns="http://www.w3.org/2000/svg">
<path d="M9.5835 25.875H5.75016C4.69163 25.875 3.8335 26.7331 3.8335 27.7917V40.25C3.8335 41.3086 4.69163 42.1667 5.75016 42.1667H9.5835C10.642 42.1667 11.5002 41.3086 11.5002 40.25V27.7917C11.5002 26.7331 10.642 25.875 9.5835 25.875Z" stroke="#141B34" stroke-width="1.5" stroke-linecap="round" stroke-linejoin="round"/>
<path d="M11.5 27.7917H22.5208C23.8441 27.7917 24.9167 28.8643 24.9167 30.1876C24.9167 31.5108 23.8441 32.5834 22.5208 32.5834H18.2083" stroke="#141B34" stroke-width="1.5" stroke-linecap="round" stroke-linejoin="round"/>
<path d="M21.0833 32.5828H28.1591C29.7883 32.5828 31.3753 32.0638 32.6895 31.1011L37.7269 27.4111C38.8219 26.5618 40.38 26.6584 41.3609 27.6367C42.499 28.7714 42.4212 30.6336 41.1926 31.6701L32.7656 38.5291C31.3983 39.6419 29.6892 40.2495 27.926 40.2495H11.5" stroke="#141B34" stroke-width="1.5" stroke-linecap="round" stroke-linejoin="round"/>
<path d="M36.4167 13.4166C36.4167 18.7091 32.126 22.9999 26.8333 22.9999C21.5406 22.9999 17.25 18.7091 17.25 13.4166C17.25 8.12384 21.5406 3.83325 26.8333 3.83325C32.126 3.83325 36.4167 8.12384 36.4167 13.4166Z" stroke="#141B34" stroke-width="1.5" stroke-linecap="round" stroke-linejoin="round"/>
</svg>
